# xmcd CD database file
#
# Track frame offsets:
#	150
#	13965
#	38663
#	91655
#	141744
#	165076
#	188519
#
# Disc length: 2867 seconds
#
# Revision: 0
# Processed by: cddbd v1.5.1PL0 Copyright (c) Steve Scherf et al.
# Submitted via: CDex 1.60beta1
#
DISCID=4d0b3107
DTITLE=Merlin's Magic - Chakra Meditation
DYEAR=1900
DGENRE=New Age
TTITLE0=Introduction
TTITLE1=Root Chakra
TTITLE2=Sacral Chakra and Solar Plexus Chakra
TTITLE3=Heart Chakra and Throat Chakra
TTITLE4=Brow - Or Third Eye - Chakra
TTITLE5=Crown Chakra
TTITLE6=Sounds Into Silence
EXTD=
EXTT0=
EXTT1=
EXTT2=
EXTT3=
EXTT4=
EXTT5=
EXTT6=
PLAYORDER=
